<?xml version="1.0" encoding="iso-8859-1"?>
<!-- Generator: Adobe Illustrator 19.0.0, SVG Export Plug-In . SVG Version: 6.00 Build 0)  -->
<svg version="1.1" id="Capa_1" xmlns="http://www.w3.org/2000/svg" xmlns:xlink="http://www.w3.org/1999/xlink" x="0px" y="0px"
	 viewBox="0 0 512.002 512.002" style="enable-background:new 0 0 512.002 512.002;" xml:space="preserve">
<g>
	<g>
		<path d="M511.884,196.995c-0.783-6.23-5.364-11.312-11.479-12.737l-51.31-11.954c-5.119-26.495-15.21-48.165-30.044-64.49
			c-20.976-23.084-50.612-34.788-88.086-34.788c-34.949,0-61.21,11.191-78.057,33.263c-21.265,27.861-21.353,66.23-18.466,90.957
			c-43.309-12.794-112.382-40.216-125.825-77.02c-2.107-5.768-7.516-9.669-13.655-9.847c-6.14-0.189-11.764,3.404-14.202,9.04
			c-19.074,44.106-18.733,91.348,0.99,136.619c2.718,6.239,5.629,12.037,8.573,17.348l-70.848-22.143
			c-4.826-1.509-10.086-0.484-13.994,2.725c-3.908,3.209-5.936,8.17-5.395,13.197c0.19,1.767,4.982,43.751,33.152,85.933
			c26.163,39.177,77.986,85.877,176.294,85.877c50.13,0,95.179-12.765,133.896-37.939c29.099-18.921,54.183-44.49,74.555-75.996
			c16.86-26.074,28.004-55.333,32.464-85.089l53.468-27.773C509.488,209.284,512.667,203.225,511.884,196.995z"/>
	</g>
</g>
<g>
</g>
<g>
</g>
<g>
</g>
<g>
</g>
<g>
</g>
<g>
</g>
<g>
</g>
<g>
</g>
<g>
</g>
<g>
</g>
<g>
</g>
<g>
</g>
<g>
</g>
<g>
</g>
<g>
</g>
</svg>
